# xmcd
#
# Track frame offsets:
#	150
#	15497
#	31487
#	49613
#	65072
#	83743
#	108945
#	131326
#	146305
#	166433
#	181755
#	201278
#
# Disc length: 2999 seconds
#
# Revision: 1
# Processed by: cddbd v1.5.2PL0 Copyright (c) Steve Scherf et al.
# Submitted via: CDmax 2.0
#
DISCID=980bb50c
DTITLE=Keith LeBlanc - Chess Moves
DYEAR=2008
DGENRE=Blues
TTITLE0=Moanin' At Midnight (Howlin' Wolf)
TTITLE1=Boom Boom (Out Go The Lights) (Little Walter)
TTITLE2=So Glad I'm Living (Muddy Waters)
TTITLE3=High Temperature (Little Walter)
TTITLE4=Killing Floor (Howlin' Wolf)
TTITLE5=Mother Earth (Memphis Slim)
TTITLE6=Rock This House (Jimmy Rodgers)
TTITLE7=Third Degree (Eddie Boyd)
TTITLE8=Goin' Down Slow (Howlin' Wolf)
TTITLE9=Booted (Roscoe Gordon)
TTITLE10=Dearest Darling (Etta James)
TTITLE11=Jock-A-Mo (Sugar Boy Crawford)
EXTD=YEAR: 2008
EXTT0=
EXTT1=
EXTT2=
EXTT3=
EXTT4=
EXTT5=
EXTT6=
EXTT7=
EXTT8=
EXTT9=
EXTT10=
EXTT11=
PLAYORDER=
